<mxfile host="65bd71144e">
    <diagram id="BearDbbYBwSG928TiTtn" name="Page-1">
        <mxGraphModel dx="1098" dy="653" grid="1" gridSize="10" guides="1" tooltips="1" connect="1" arrows="1" fold="1" page="1" pageScale="1" pageWidth="850" pageHeight="1100" math="0" shadow="0">
            <root>
                <mxCell id="0"/>
                <mxCell id="1" parent="0"/>
                <mxCell id="2" value="" style="ellipse;whiteSpace=wrap;html=1;fillColor=default;fillStyle=solid;labelBackgroundColor=none;fontFamily=Times New Roman;" vertex="1" parent="1">
                    <mxGeometry x="400" y="750" width="50" height="50" as="geometry"/>
                </mxCell>
                <mxCell id="8" style="edgeStyle=none;html=1;entryX=0.5;entryY=0;entryDx=0;entryDy=0;fontFamily=Times New Roman;" edge="1" parent="1" source="4" target="5">
                    <mxGeometry relative="1" as="geometry"/>
                </mxCell>
                <mxCell id="4" value="" style="ellipse;whiteSpace=wrap;html=1;labelBackgroundColor=none;fillStyle=solid;fillColor=default;fontFamily=Times New Roman;" vertex="1" parent="1">
                    <mxGeometry x="390.5" y="60" width="70" height="70" as="geometry"/>
                </mxCell>
                <mxCell id="9" style="edgeStyle=none;html=1;entryX=0.5;entryY=0;entryDx=0;entryDy=0;fontFamily=Times New Roman;" edge="1" parent="1" source="5" target="6">
                    <mxGeometry relative="1" as="geometry"/>
                </mxCell>
                <mxCell id="5" value="User Login" style="rounded=0;whiteSpace=wrap;html=1;labelBackgroundColor=none;fillStyle=solid;fillColor=none;fontFamily=Times New Roman;" vertex="1" parent="1">
                    <mxGeometry x="365" y="180" width="120" height="60" as="geometry"/>
                </mxCell>
                <mxCell id="7" value="Invalid" style="edgeStyle=none;html=1;entryX=0;entryY=0.5;entryDx=0;entryDy=0;fontFamily=Times New Roman;" edge="1" parent="1" source="6" target="5">
                    <mxGeometry relative="1" as="geometry">
                        <Array as="points">
                            <mxPoint x="230" y="350"/>
                            <mxPoint x="230" y="210"/>
                        </Array>
                    </mxGeometry>
                </mxCell>
                <mxCell id="11" value="Verified" style="edgeStyle=none;html=1;exitX=0.5;exitY=1;exitDx=0;exitDy=0;fontFamily=Times New Roman;" edge="1" parent="1" source="6">
                    <mxGeometry relative="1" as="geometry">
                        <mxPoint x="425.66666666666674" y="460" as="targetPoint"/>
                    </mxGeometry>
                </mxCell>
                <mxCell id="6" value="Authentication" style="rhombus;whiteSpace=wrap;html=1;labelBackgroundColor=none;fillStyle=solid;fillColor=none;fontFamily=Times New Roman;" vertex="1" parent="1">
                    <mxGeometry x="378" y="300" width="95" height="100" as="geometry"/>
                </mxCell>
                <mxCell id="12" value="" style="endArrow=none;html=1;strokeWidth=4;fontFamily=Times New Roman;" edge="1" parent="1">
                    <mxGeometry width="50" height="50" relative="1" as="geometry">
                        <mxPoint x="135" y="460" as="sourcePoint"/>
                        <mxPoint x="715" y="460" as="targetPoint"/>
                    </mxGeometry>
                </mxCell>
                <mxCell id="20" value="" style="group;fontFamily=Times New Roman;" vertex="1" connectable="0" parent="1">
                    <mxGeometry x="140" y="500" width="530" height="140" as="geometry"/>
                </mxCell>
                <mxCell id="13" value="Adoption" style="rounded=0;whiteSpace=wrap;html=1;labelBackgroundColor=none;fillStyle=solid;fillColor=none;fontFamily=Times New Roman;" vertex="1" parent="20">
                    <mxGeometry width="110" height="50" as="geometry"/>
                </mxCell>
                <mxCell id="14" value="Scheduling" style="rounded=0;whiteSpace=wrap;html=1;labelBackgroundColor=none;fillStyle=solid;fillColor=none;fontFamily=Times New Roman;" vertex="1" parent="20">
                    <mxGeometry x="140" width="110" height="50" as="geometry"/>
                </mxCell>
                <mxCell id="15" value="Symptom&lt;br&gt;Analysis" style="rounded=0;whiteSpace=wrap;html=1;labelBackgroundColor=none;fillStyle=solid;fillColor=none;fontFamily=Times New Roman;" vertex="1" parent="20">
                    <mxGeometry x="280" width="110" height="50" as="geometry"/>
                </mxCell>
                <mxCell id="16" value="Shopping" style="rounded=0;whiteSpace=wrap;html=1;labelBackgroundColor=none;fillStyle=solid;fillColor=none;fontFamily=Times New Roman;" vertex="1" parent="20">
                    <mxGeometry x="420" width="110" height="50" as="geometry"/>
                </mxCell>
                <mxCell id="17" value="Training Aid" style="rounded=0;whiteSpace=wrap;html=1;labelBackgroundColor=none;fillStyle=solid;fillColor=none;fontFamily=Times New Roman;" vertex="1" parent="20">
                    <mxGeometry x="70" y="90" width="110" height="50" as="geometry"/>
                </mxCell>
                <mxCell id="18" value="Community" style="rounded=0;whiteSpace=wrap;html=1;labelBackgroundColor=none;fillStyle=solid;fillColor=none;fontFamily=Times New Roman;" vertex="1" parent="20">
                    <mxGeometry x="210" y="90" width="110" height="50" as="geometry"/>
                </mxCell>
                <mxCell id="19" value="Vet Services" style="rounded=0;whiteSpace=wrap;html=1;labelBackgroundColor=none;fillStyle=solid;fillColor=none;fontFamily=Times New Roman;" vertex="1" parent="20">
                    <mxGeometry x="350" y="90" width="110" height="50" as="geometry"/>
                </mxCell>
                <mxCell id="21" value="" style="endArrow=none;html=1;strokeWidth=4;fontFamily=Times New Roman;" edge="1" parent="1">
                    <mxGeometry width="50" height="50" relative="1" as="geometry">
                        <mxPoint x="135" y="690" as="sourcePoint"/>
                        <mxPoint x="715" y="690" as="targetPoint"/>
                    </mxGeometry>
                </mxCell>
                <mxCell id="34" value="" style="endArrow=classic;html=1;strokeWidth=1;entryX=0.5;entryY=0;entryDx=0;entryDy=0;fontFamily=Times New Roman;" edge="1" parent="1" target="13">
                    <mxGeometry width="50" height="50" relative="1" as="geometry">
                        <mxPoint x="195" y="460" as="sourcePoint"/>
                        <mxPoint x="130" y="430" as="targetPoint"/>
                    </mxGeometry>
                </mxCell>
                <mxCell id="35" value="" style="endArrow=classic;html=1;strokeWidth=1;entryX=0.5;entryY=0;entryDx=0;entryDy=0;fontFamily=Times New Roman;" edge="1" parent="1" target="17">
                    <mxGeometry width="50" height="50" relative="1" as="geometry">
                        <mxPoint x="265" y="460" as="sourcePoint"/>
                        <mxPoint x="270" y="500" as="targetPoint"/>
                    </mxGeometry>
                </mxCell>
                <mxCell id="36" value="" style="endArrow=classic;html=1;strokeWidth=1;entryX=0.5;entryY=0;entryDx=0;entryDy=0;fontFamily=Times New Roman;" edge="1" parent="1" target="16">
                    <mxGeometry width="50" height="50" relative="1" as="geometry">
                        <mxPoint x="615" y="460" as="sourcePoint"/>
                        <mxPoint x="610" y="500" as="targetPoint"/>
                    </mxGeometry>
                </mxCell>
                <mxCell id="37" value="" style="endArrow=classic;html=1;strokeWidth=1;fontFamily=Times New Roman;" edge="1" parent="1">
                    <mxGeometry width="50" height="50" relative="1" as="geometry">
                        <mxPoint x="473" y="460" as="sourcePoint"/>
                        <mxPoint x="473" y="500" as="targetPoint"/>
                    </mxGeometry>
                </mxCell>
                <mxCell id="38" value="" style="endArrow=classic;html=1;strokeWidth=1;entryX=0.5;entryY=0;entryDx=0;entryDy=0;fontFamily=Times New Roman;" edge="1" parent="1" target="14">
                    <mxGeometry width="50" height="50" relative="1" as="geometry">
                        <mxPoint x="335" y="460" as="sourcePoint"/>
                        <mxPoint x="340" y="480" as="targetPoint"/>
                    </mxGeometry>
                </mxCell>
                <mxCell id="39" value="" style="endArrow=classic;html=1;strokeWidth=1;entryX=0.5;entryY=0;entryDx=0;entryDy=0;fontFamily=Times New Roman;" edge="1" parent="1" target="18">
                    <mxGeometry width="50" height="50" relative="1" as="geometry">
                        <mxPoint x="405" y="460" as="sourcePoint"/>
                        <mxPoint x="275" y="600" as="targetPoint"/>
                    </mxGeometry>
                </mxCell>
                <mxCell id="40" value="" style="endArrow=classic;html=1;strokeWidth=1;entryX=0.5;entryY=0;entryDx=0;entryDy=0;fontFamily=Times New Roman;" edge="1" parent="1" target="19">
                    <mxGeometry width="50" height="50" relative="1" as="geometry">
                        <mxPoint x="545" y="460" as="sourcePoint"/>
                        <mxPoint x="415" y="600" as="targetPoint"/>
                    </mxGeometry>
                </mxCell>
                <mxCell id="41" style="edgeStyle=none;html=1;strokeWidth=1;fontFamily=Times New Roman;" edge="1" parent="1" source="13">
                    <mxGeometry relative="1" as="geometry">
                        <mxPoint x="195" y="690" as="targetPoint"/>
                    </mxGeometry>
                </mxCell>
                <mxCell id="43" style="edgeStyle=none;html=1;strokeWidth=1;fontFamily=Times New Roman;" edge="1" parent="1" source="17">
                    <mxGeometry relative="1" as="geometry">
                        <mxPoint x="265" y="690" as="targetPoint"/>
                    </mxGeometry>
                </mxCell>
                <mxCell id="44" style="edgeStyle=none;html=1;strokeWidth=1;fontFamily=Times New Roman;" edge="1" parent="1" source="18">
                    <mxGeometry relative="1" as="geometry">
                        <mxPoint x="405" y="690" as="targetPoint"/>
                    </mxGeometry>
                </mxCell>
                <mxCell id="45" style="edgeStyle=none;html=1;strokeWidth=1;fontFamily=Times New Roman;" edge="1" parent="1" source="19">
                    <mxGeometry relative="1" as="geometry">
                        <mxPoint x="545" y="690" as="targetPoint"/>
                        <Array as="points"/>
                    </mxGeometry>
                </mxCell>
                <mxCell id="46" value="" style="ellipse;whiteSpace=wrap;html=1;labelBackgroundColor=none;fillStyle=solid;fillColor=none;fontFamily=Times New Roman;" vertex="1" parent="1">
                    <mxGeometry x="390" y="740" width="70" height="70" as="geometry"/>
                </mxCell>
                <mxCell id="48" value="" style="endArrow=classic;html=1;strokeWidth=1;entryX=0.5;entryY=0;entryDx=0;entryDy=0;fontFamily=Times New Roman;" edge="1" parent="1" target="46">
                    <mxGeometry width="50" height="50" relative="1" as="geometry">
                        <mxPoint x="425" y="690" as="sourcePoint"/>
                        <mxPoint x="490" y="520" as="targetPoint"/>
                    </mxGeometry>
                </mxCell>
                <mxCell id="49" style="edgeStyle=none;html=1;strokeWidth=1;exitX=0.5;exitY=1;exitDx=0;exitDy=0;fontFamily=Times New Roman;" edge="1" parent="1" source="14">
                    <mxGeometry relative="1" as="geometry">
                        <mxPoint x="335" y="690" as="targetPoint"/>
                        <mxPoint x="205" y="560" as="sourcePoint"/>
                    </mxGeometry>
                </mxCell>
                <mxCell id="50" style="edgeStyle=none;html=1;strokeWidth=1;exitX=0.5;exitY=1;exitDx=0;exitDy=0;fontFamily=Times New Roman;" edge="1" parent="1" source="15">
                    <mxGeometry relative="1" as="geometry">
                        <mxPoint x="475" y="690" as="targetPoint"/>
                        <mxPoint x="345" y="560" as="sourcePoint"/>
                    </mxGeometry>
                </mxCell>
                <mxCell id="51" style="edgeStyle=none;html=1;strokeWidth=1;exitX=0.75;exitY=1;exitDx=0;exitDy=0;fontFamily=Times New Roman;" edge="1" parent="1" source="16">
                    <mxGeometry relative="1" as="geometry">
                        <mxPoint x="640" y="690" as="targetPoint"/>
                        <mxPoint x="485" y="560" as="sourcePoint"/>
                    </mxGeometry>
                </mxCell>
            </root>
        </mxGraphModel>
    </diagram>
</mxfile>